<?xml version="1.0" encoding="utf-8"?>
<!-- Generator: Adobe Illustrator 24.1.0, SVG Export Plug-In . SVG Version: 6.00 Build 0)  -->
<svg
  version="1.1"
  id="Layer_1"
  xmlns="http://www.w3.org/2000/svg"
  xmlns:xlink="http://www.w3.org/1999/xlink"
  x="0px"
  y="0px"
  viewBox="0 0 400 200"
  style="enable-background: new 0 0 400 200"
  xml:space="preserve"
>
  <style type="text/css">
    .st0 {
      fill: #03060d;
    }
    .st1 {
      fill: #1bcbe2;
    }
    .st2 {
      fill: #ffffff;
    }
    .st3 {
      fill: #68717e;
    }
  </style>
  <g>
    <g>
      <g>
        <g>
          <path
            class="st0"
            d="M167.66,116.32V69.44h12.08l13.52,29.63l13.58-29.63h12.08v46.88h-11.96V94.26l-9.74,20.25h-7.88
					l-9.74-20.25v22.06H167.66z"
          />
          <path
            class="st0"
            d="M232.76,69.44h36V81.1h-23.98v6.73h19.71v10.88h-19.71v6.01h23.98v11.6h-36V69.44z"
          />
          <path
            class="st0"
            d="M291.06,102.25v0.3c0,1.8,2.46,4.27,7.93,4.27c4.51,0,5.95-1.5,5.95-2.88c0-1.98-2.34-3.19-7.99-5.11
					c-7.45-2.46-17.25-6.07-17.25-15.75c0-8.96,7.63-14.54,18.33-14.54c10.94,0,19.17,5.83,19.17,15.15v0.66h-11.72v-0.42
					c0-2.28-2.34-4.99-7.21-4.99c-4.09,0-5.71,1.62-5.71,3.19c0,1.86,2.16,2.82,7.75,4.75c6.49,2.28,17.55,6.13,17.55,16.41
					c0,9.14-7.93,13.94-18.63,13.94c-11.24,0-19.89-5.23-19.89-14.42v-0.54H291.06z"
          />
          <path
            class="st0"
            d="M372.93,69.44v46.88h-12.02V98.89h-19.11v17.43h-11.96V69.44h11.96v18.21h19.11V69.44H372.93z"
          />
          <path
            class="st3"
            d="M175.69,135.22h10.54v12.76h-4.4v-2.05c-1.07,1.63-3.28,2.47-5.53,2.47c-6.34,0-11.61-5.1-11.61-11.36
					s5.27-11.36,11.61-11.36c3.76,0,7.15,1.82,9.25,4.57l-4.57,3.08c-1.09-1.37-2.78-2.24-4.68-2.24c-3.31,0-5.95,2.64-5.95,5.95
					s2.63,5.95,5.95,5.95c1.96,0,3.65-0.98,4.68-2.5v-0.62h-5.3V135.22z"
          />
          <path
            class="st3"
            d="M202.29,126.1c5.61,0,8.19,3.65,8.19,7.99c0,3.06-1.38,5.92-4.32,7.26l4.74,6.62h-6.7l-4.15-5.86h-2.86
					v5.86h-5.58V126.1H202.29z M197.18,131.21v5.83h4.8c2.24,0,3.08-1.37,3.08-2.89c0-1.68-0.84-2.95-3.08-2.95H197.18z"
          />
          <path
            class="st3"
            d="M227.92,126.1l8.84,21.88h-6.12l-1.21-3.2h-8.61l-1.21,3.2h-6.11l8.86-21.88H227.92z M225.15,133.28
					l-2.41,6.42h4.79L225.15,133.28z"
          />
          <path
            class="st3"
            d="M240.97,126.1h9.65c5.81,0,8.58,3.98,8.58,8.39c0,4.63-2.78,8.53-8.58,8.53h-4.04v4.96h-5.61V126.1z
					 M246.58,131.21v6.7h3.73c2.36,0,3.23-1.46,3.23-3.39c0-1.74-0.87-3.31-3.23-3.31H246.58z"
          />
          <path
            class="st3"
            d="M283.99,126.1v21.88h-5.61v-8.13h-8.92v8.13h-5.58V126.1h5.58v8.5h8.92v-8.5H283.99z"
          />
          <path
            class="st3"
            d="M300.46,125.68c6.39,0,11.61,5.1,11.61,11.36c0,4.15-2.27,7.77-5.67,9.76c1.01,0.7,1.91,1.21,2.86,1.21
					c0.31,0,1.32-0.08,1.91-0.98l4.23,3.42c-1.57,2.16-4.12,2.97-6.11,2.97c-4.4,0-6.96-3.93-10.74-5.19
					c-5.44-0.87-9.7-5.58-9.7-11.19C288.85,130.79,294.15,125.68,300.46,125.68z M300.46,142.99c3.37,0,5.95-2.64,5.95-5.95
					s-2.58-5.95-5.95-5.95c-3.28,0-5.95,2.64-5.95,5.95S297.18,142.99,300.46,142.99z"
          />
          <path class="st3" d="M316.96,126.1h5.58v16.46h10.49v5.41h-16.07V126.1z" />
        </g>
      </g>
      <g>
        <g>
          <path
            class="st0"
            d="M387.6,101.65c1.95,0,3.6,0.7,4.96,2.09s2.04,3.06,2.04,5.01c0,1.93-0.68,3.59-2.05,4.99s-3.04,2.09-5,2.09
					c-1.95,0-3.61-0.7-4.97-2.09c-1.37-1.39-2.05-3.05-2.05-4.99s0.69-3.6,2.07-5C383.97,102.35,385.64,101.65,387.6,101.65z
					 M383.3,113.04c1.16,1.19,2.57,1.78,4.25,1.78c1.68,0,3.1-0.6,4.27-1.79c1.17-1.19,1.76-2.62,1.76-4.28
					c0-1.68-0.58-3.11-1.75-4.3c-1.16-1.19-2.57-1.78-4.24-1.78c-1.68,0-3.1,0.6-4.27,1.79c-1.17,1.2-1.76,2.63-1.76,4.31
					C381.57,110.43,382.15,111.86,383.3,113.04z M390.36,107.18c0,1.27-0.62,2.02-1.85,2.25l2.21,3.11h-1.14l-2.13-3.04h-1.31v3.04
					h-0.93v-7.69h2.66c0.82,0,1.44,0.21,1.86,0.64C390.14,105.92,390.36,106.48,390.36,107.18z M386.13,105.73v2.92h1.52
					c1.16,0,1.73-0.5,1.73-1.5c0-0.44-0.14-0.79-0.43-1.04s-0.67-0.38-1.16-0.38H386.13z"
          />
        </g>
      </g>
    </g>
  </g>
  <g>
    <g>
      <path
        class="st1"
        d="M94.92,102.05c1.07,0,1.93-0.87,1.93-1.93V86.16c0-0.81-0.5-1.53-1.25-1.81l-22.92-8.59
			c-0.44-0.16-0.92-0.16-1.36,0L48.4,84.34c-0.75,0.28-1.25,1-1.25,1.81v6.21c0,1.07,0.87,1.93,1.93,1.93s1.93-0.87,1.93-1.93v-3.42
			l19.05,7.14v25.56l-19.05-7.14v-13.1c0-1.07-0.87-1.93-1.93-1.93s-1.93,0.87-1.93,1.93v14.44c0,0.81,0.5,1.53,1.25,1.81
			l22.92,8.59c0,0,0,0,0-0.01c0.22,0.08,0.45,0.13,0.68,0.13c0.23,0,0.46-0.04,0.68-0.12l22.92-8.59c0.75-0.28,1.25-1,1.25-1.81
			v-6.71c0-1.07-0.87-1.93-1.93-1.93c-1.07,0-1.93,0.87-1.93,1.93v5.37l-19.05,7.14V96.09l19.05-7.14v11.17
			C92.98,101.19,93.85,102.05,94.92,102.05z M72,92.68l-17.41-6.53L72,79.63l17.41,6.53L72,92.68z"
      />
      <path
        class="st1"
        d="M70.07,54.3v13.89c0,1.07,0.87,1.93,1.93,1.93s1.93-0.87,1.93-1.93V54.3c4.45-0.9,7.81-4.84,7.81-9.55
			c0-5.37-4.37-9.75-9.75-9.75s-9.75,4.37-9.75,9.75C62.25,49.46,65.62,53.4,70.07,54.3z M72,38.87c3.24,0,5.88,2.64,5.88,5.88
			s-2.64,5.88-5.88,5.88s-5.88-2.64-5.88-5.88S68.76,38.87,72,38.87z"
      />
      <path
        class="st1"
        d="M109.2,124.81c-3,0-5.77,0.99-8,2.66l-4.63-4.63c-0.76-0.76-1.98-0.76-2.73,0c-0.76,0.76-0.76,1.98,0,2.73
			l4.63,4.63c-1.67,2.23-2.66,5-2.66,8c0,7.38,6.01,13.39,13.39,13.39c7.38,0,13.39-6.01,13.39-13.39S116.58,124.81,109.2,124.81
			L109.2,124.81z M109.2,147.72c-5.25,0-9.53-4.27-9.53-9.53s4.27-9.53,9.53-9.53s9.53,4.27,9.53,9.53S114.45,147.72,109.2,147.72z"
      />
      <path
        class="st1"
        d="M34.8,77.19c3,0,5.77-0.99,8-2.66l4.63,4.63c0.38,0.38,0.87,0.57,1.37,0.57s0.99-0.19,1.37-0.57
			c0.76-0.76,0.76-1.98,0-2.73l-4.63-4.63c1.67-2.23,2.66-5,2.66-8c0-7.38-6.01-13.39-13.39-13.39S21.41,56.42,21.41,63.8
			S27.42,77.19,34.8,77.19L34.8,77.19z M34.8,54.28c5.25,0,9.53,4.27,9.53,9.53s-4.27,9.53-9.53,9.53s-9.53-4.27-9.53-9.53
			S29.55,54.28,34.8,54.28z"
      />
      <path
        class="st1"
        d="M73.93,147.7v-13.89c0-1.07-0.87-1.93-1.93-1.93s-1.93,0.87-1.93,1.93v13.89c-4.45,0.9-7.81,4.84-7.81,9.55
			c0,5.37,4.37,9.75,9.75,9.75s9.75-4.37,9.75-9.75C81.75,152.54,78.38,148.6,73.93,147.7z M72,163.13c-3.24,0-5.88-2.64-5.88-5.88
			s2.64-5.88,5.88-5.88s5.88,2.64,5.88,5.88S75.24,163.13,72,163.13z"
      />
      <path
        class="st1"
        d="M128.25,91.25c-4.71,0-8.65,3.36-9.55,7.81h-13.89c-1.07,0-1.93,0.87-1.93,1.93s0.87,1.93,1.93,1.93h13.89
			c0.9,4.45,4.84,7.81,9.55,7.81c5.37,0,9.75-4.37,9.75-9.75S133.63,91.25,128.25,91.25z M128.25,106.88
			c-3.24,0-5.88-2.64-5.88-5.88s2.64-5.88,5.88-5.88s5.88,2.64,5.88,5.88C134.13,104.24,131.5,106.88,128.25,106.88z"
      />
      <path
        class="st1"
        d="M25.3,102.93h13.89c1.07,0,1.93-0.87,1.93-1.93s-0.87-1.93-1.93-1.93H25.3c-0.9-4.45-4.84-7.81-9.55-7.81
			C10.37,91.25,6,95.63,6,101s4.37,9.75,9.75,9.75C20.46,110.75,24.4,107.38,25.3,102.93z M15.75,106.88
			c-3.24,0-5.88-2.64-5.88-5.88s2.64-5.88,5.88-5.88s5.88,2.64,5.88,5.88C21.63,104.24,18.99,106.88,15.75,106.88z"
      />
      <path
        class="st1"
        d="M95.2,79.73c0.49,0,0.99-0.19,1.37-0.57l4.63-4.63c2.23,1.67,5,2.66,8,2.66c7.38,0,13.39-6.01,13.39-13.39
			s-6.01-13.39-13.39-13.39c-7.38,0-13.39,6.01-13.39,13.39c0,3,0.99,5.77,2.66,8l-4.63,4.63c-0.76,0.76-0.76,1.98,0,2.73
			C94.21,79.54,94.71,79.73,95.2,79.73L95.2,79.73z M109.2,54.28c5.25,0,9.53,4.27,9.53,9.53s-4.27,9.53-9.53,9.53
			s-9.53-4.27-9.53-9.53S103.95,54.28,109.2,54.28z"
      />
      <path
        class="st1"
        d="M47.43,122.84l-4.63,4.63c-2.23-1.67-5-2.66-8-2.66c-7.38,0-13.39,6.01-13.39,13.39s6.01,13.39,13.39,13.39
			s13.39-6.01,13.39-13.39c0-3-0.99-5.77-2.66-8l4.63-4.63c0.76-0.76,0.76-1.98,0-2.73C49.41,122.08,48.18,122.08,47.43,122.84z
			 M34.8,147.72c-5.25,0-9.53-4.27-9.53-9.53s4.27-9.53,9.53-9.53s9.53,4.27,9.53,9.53S40.05,147.72,34.8,147.72z"
      />
    </g>
  </g>
</svg>
