<?xml version="1.0" encoding="utf-8"?>
<!-- Generator: Adobe Illustrator 16.0.0, SVG Export Plug-In . SVG Version: 6.00 Build 0)  -->
<!DOCTYPE svg PUBLIC "-//W3C//DTD SVG 1.1//EN" "http://www.w3.org/Graphics/SVG/1.1/DTD/svg11.dtd">
<svg
  version="1.1"
  id="Layer_1"
  xmlns="http://www.w3.org/2000/svg"
  xmlns:xlink="http://www.w3.org/1999/xlink"
  x="0px"
  y="0px"
  width="106.667px"
  height="100px"
  viewBox="-4.167 0 106.667 100"
  enable-background="new -4.167 0 106.667 100"
  xml:space="preserve"
>
  <path
    d="M77.083,7.99c6.074,0,10.998,4.923,10.998,10.997c0,6.074-4.923,10.998-10.998,10.998c-6.069,0-10.993-4.923-10.993-10.998
	C66.09,12.913,71.014,7.99,77.083,7.99z"
  />
  <path
    d="M21.379,7.99c6.074,0,10.997,4.923,10.997,10.997c0,6.074-4.923,10.998-10.997,10.998c-6.074,0-10.997-4.923-10.997-10.998
	C10.382,12.913,15.305,7.99,21.379,7.99z"
  />
  <path
    d="M50.975,19.433c8.096,0,14.658,6.563,14.658,14.66c0,8.1-6.563,14.663-14.658,14.663c-8.101,0-14.663-6.563-14.663-14.663
	C36.312,25.996,42.874,19.433,50.975,19.433z"
  />
  <path
    d="M89.657,33.813H68.695c0.003,0.097,0.016,0.19,0.016,0.287c0,5.912-2.902,11.134-7.35,14.358h5.477
	c7.087,0,12.831,5.128,12.831,11.454v8.826h20.015V43.839C99.684,38.3,95.195,33.813,89.657,33.813z"
  />
  <path
    d="M76.775,91.369V62.557c0-6.324-5.129-11.457-11.455-11.457H35.646c-6.326,0-11.454,5.133-11.454,11.457v28.813H76.775z"
  />
  <path
    d="M33.232,34.094c0-0.095,0.013-0.187,0.014-0.282H9.709c-5.536,0-10.026,4.488-10.026,10.027v24.897h21.073v-8.863
	c0-6.325,5.745-11.454,12.832-11.454h6.952C36.117,45.193,33.232,39.987,33.232,34.094z"
  />
</svg>
