<?xml version="1.0" encoding="utf-8"?>
<!-- Generator: Adobe Illustrator 24.1.0, SVG Export Plug-In . SVG Version: 6.00 Build 0)  -->
<svg
  version="1.1"
  id="Layer_1"
  xmlns="http://www.w3.org/2000/svg"
  xmlns:xlink="http://www.w3.org/1999/xlink"
  x="0px"
  y="0px"
  viewBox="0 0 200 200"
  style="enable-background: new 0 0 200 200"
  xml:space="preserve"
>
  <style type="text/css">
    .st0 {
      fill: #03060d;
    }
    .st1 {
      fill: #1bcbe2;
    }
    .st2 {
      fill: #ffffff;
    }
    .st3 {
      fill: #68717e;
    }
  </style>
  <g>
    <g>
      <path
        class="st1"
        d="M130.73,102.41c1.43,0,2.59-1.16,2.59-2.59V81.09c0-1.08-0.67-2.05-1.68-2.43l-30.73-11.52
			c-0.59-0.22-1.23-0.22-1.82,0L68.36,78.67c-1.01,0.38-1.68,1.35-1.68,2.43v8.32c0,1.43,1.16,2.59,2.59,2.59s2.59-1.16,2.59-2.59
			v-4.58l25.55,9.58v34.27l-25.55-9.58v-17.56c0-1.43-1.16-2.59-2.59-2.59s-2.59,1.16-2.59,2.59v19.36c0,1.08,0.67,2.05,1.68,2.43
			l30.73,11.52c0,0,0,0,0-0.01c0.29,0.11,0.6,0.17,0.91,0.17c0.31,0,0.61-0.05,0.91-0.17l30.73-11.52c1.01-0.38,1.68-1.35,1.68-2.43
			v-9c0-1.43-1.16-2.59-2.59-2.59s-2.59,1.16-2.59,2.59v7.2l-25.55,9.58V94.42l25.55-9.58v14.98
			C128.14,101.25,129.3,102.41,130.73,102.41z M100,89.85l-23.35-8.75L100,72.34l23.35,8.76L100,89.85z"
      />
      <path
        class="st1"
        d="M97.41,38.38V57c0,1.43,1.16,2.59,2.59,2.59s2.59-1.16,2.59-2.59V38.38c5.97-1.21,10.48-6.49,10.48-12.81
			c0-7.21-5.86-13.07-13.07-13.07s-13.07,5.86-13.07,13.07C86.93,31.89,91.44,37.17,97.41,38.38z M100,17.69
			c4.35,0,7.88,3.54,7.88,7.88s-3.54,7.88-7.88,7.88s-7.88-3.54-7.88-7.88S95.65,17.69,100,17.69z"
      />
      <path
        class="st1"
        d="M149.88,132.92c-4.02,0-7.73,1.33-10.73,3.56l-6.21-6.21c-1.01-1.01-2.65-1.01-3.67,0s-1.01,2.65,0,3.67
			l6.21,6.21c-2.24,3-3.56,6.71-3.56,10.73c0,9.9,8.06,17.96,17.96,17.96s17.96-8.06,17.96-17.96S159.78,132.92,149.88,132.92
			L149.88,132.92z M149.88,163.65c-7.04,0-12.77-5.73-12.77-12.77c0-7.04,5.73-12.77,12.77-12.77s12.77,5.73,12.77,12.77
			C162.65,157.92,156.92,163.65,149.88,163.65z"
      />
      <path
        class="st1"
        d="M50.12,69.08c4.02,0,7.73-1.33,10.73-3.56l6.21,6.21c0.51,0.51,1.17,0.76,1.83,0.76s1.33-0.25,1.83-0.76
			c1.01-1.01,1.01-2.65,0-3.67l-6.21-6.21c2.24-3,3.56-6.71,3.56-10.73c0-9.9-8.06-17.96-17.96-17.96s-17.96,8.06-17.96,17.96
			S40.22,69.08,50.12,69.08L50.12,69.08z M50.12,38.35c7.04,0,12.77,5.73,12.77,12.77s-5.73,12.77-12.77,12.77
			s-12.77-5.73-12.77-12.77S43.08,38.35,50.12,38.35z"
      />
      <path
        class="st1"
        d="M102.59,163.62V145c0-1.43-1.16-2.59-2.59-2.59s-2.59,1.16-2.59,2.59v18.62
			c-5.97,1.21-10.48,6.49-10.48,12.81c0,7.21,5.86,13.07,13.07,13.07s13.07-5.86,13.07-13.07
			C113.07,170.11,108.56,164.83,102.59,163.62z M100,184.31c-4.35,0-7.88-3.54-7.88-7.88s3.54-7.88,7.88-7.88
			c4.35,0,7.88,3.54,7.88,7.88S104.35,184.31,100,184.31z"
      />
      <path
        class="st1"
        d="M175.43,87.93c-6.32,0-11.6,4.51-12.81,10.48H144c-1.43,0-2.59,1.16-2.59,2.59s1.16,2.59,2.59,2.59h18.62
			c1.21,5.97,6.49,10.48,12.81,10.48c7.21,0,13.07-5.86,13.07-13.07S182.64,87.93,175.43,87.93z M175.43,108.88
			c-4.35,0-7.88-3.54-7.88-7.88s3.54-7.88,7.88-7.88s7.88,3.54,7.88,7.88C183.31,105.35,179.78,108.88,175.43,108.88z"
      />
      <path
        class="st1"
        d="M37.38,103.59H56c1.43,0,2.59-1.16,2.59-2.59s-1.16-2.59-2.59-2.59H37.38c-1.21-5.97-6.49-10.48-12.81-10.48
			c-7.21,0-13.07,5.86-13.07,13.07s5.86,13.07,13.07,13.07C30.89,114.07,36.17,109.56,37.38,103.59z M24.57,108.88
			c-4.35,0-7.88-3.54-7.88-7.88s3.54-7.88,7.88-7.88s7.88,3.54,7.88,7.88C32.45,105.35,28.92,108.88,24.57,108.88z"
      />
      <path
        class="st1"
        d="M131.11,72.48c0.66,0,1.33-0.25,1.83-0.76l6.21-6.21c3,2.24,6.71,3.56,10.73,3.56
			c9.9,0,17.96-8.06,17.96-17.96s-8.06-17.96-17.96-17.96s-17.96,8.06-17.96,17.96c0,4.02,1.33,7.73,3.56,10.73l-6.21,6.21
			c-1.01,1.01-1.01,2.65,0,3.67C129.79,72.23,130.45,72.48,131.11,72.48L131.11,72.48z M149.88,38.35c7.04,0,12.77,5.73,12.77,12.77
			s-5.73,12.77-12.77,12.77c-7.04,0-12.77-5.73-12.77-12.77S142.84,38.35,149.88,38.35z"
      />
      <path
        class="st1"
        d="M67.05,130.28l-6.21,6.21c-3-2.24-6.71-3.56-10.73-3.56c-9.9,0-17.96,8.06-17.96,17.96
			s8.06,17.96,17.96,17.96s17.96-8.06,17.96-17.96c0-4.02-1.33-7.73-3.56-10.73l6.21-6.21c1.01-1.01,1.01-2.65,0-3.67
			C69.71,129.27,68.07,129.27,67.05,130.28z M50.12,163.65c-7.04,0-12.77-5.73-12.77-12.77c0-7.04,5.73-12.77,12.77-12.77
			s12.77,5.73,12.77,12.77C62.89,157.92,57.16,163.65,50.12,163.65z"
      />
    </g>
  </g>
</svg>
